<svg
    width="40"
    height="16"
    viewBox="0 0 207 112"
    xmlns="http://www.w3.org/2000/svg"
>
    <g fill="none" fill-rule="evenodd">
    <path
        d="M206.897 58c-.484 3.423-2.667 6-6.397 6-2.547 0-4.373-1.202-5.429-3.054C157 67.738 122.832 85.927 96.164 111.89 69.004 94.1 37.063 83.1 2.71 81.27A162.4 162.4 0 0 1 .897 57c0-9.006.735-17.813 2.14-26.346C36.881 28.616 68.344 17.673 95.152.118c26.814 26.491 61.364 45.057 99.92 51.936C196.126 50.202 197.952 49 200.5 49c3.73 0 5.913 2.577 6.397 6H95v3h111.897z"
        fill="#333"
    />
    <g transform="translate(19.116 29.756)">
        <circle cx="26.12" cy="26.12" r="26.12" />
        <path
        d="M39.387 28.863s-7.943 5.63-13.164 5.705c-5.22.075-4.69-3.284-4.69-3.284s19.141-6.5 13.92-19.336c-2.346-3.302-5.07-4.342-8.926-4.266-3.86.075-8.645 2.41-11.749 9.316-1.483 3.294-2.022 6.419-2.325 8.785 0 0-3.348.679-5.165-.823-1.817-1.5-2.75 0-2.75 0s-3.12 3.942-.016 5.144c3.104 1.2 7.943 1.762 7.943 1.762.44 2.102 1.736 5.671 5.516 8.518 5.673 4.278 16.567-.393 16.567-.393s2.374-.894 4.463-2.487c3.041-2.649 2.614-10.707.376-8.64zm-18.633-3.62c.224-8.815 6.048-12.667 8.066-10.741 2.017 1.926 1.27 6.074-2.541 8.667-3.807 2.592-5.525 2.074-5.525 2.074z"
        fill="#FFF"
        fill-rule="nonzero"
        />
    </g>
    </g>
</svg>